# xmcd CD database file
#
# Track frame offsets:
#	150
#	16135
#	33825
#
# Disc length: 690 seconds
#
# Revision: 1
# Processed by: cddbd v1.5.1PL2 Copyright (c) Steve Scherf et al.
# Submitted via: CDex 1.51
#
DISCID=1402b003
DTITLE=Kids Alive - NEW DREAM
DYEAR=2000
DGENRE=JPop
TTITLE0=NEW DREAM
TTITLE1=BREAK〜子供の愛〜
TTITLE2=ヤングパンク
EXTD=YEAR: 2000
EXTT0=
EXTT1=
EXTT2=
PLAYORDER=
